# xmcd
# 
# Track frame offsets:
#     187
#     72037
#     142600
#     209310
# 
# Disc length: 3770
# 
# Revision: 2
# Processed by: cddbd v1.5.2PL0 Copyright (c) Steve Scherf et al.
# Submitted via: fre:ac v1.0.31
# 
DISCID=2e0eb804
DTITLE=Various Artist - ゆうきまさみ文化学院 ラブリー・ブラッド CDシネマ
DYEAR=1996
DGENRE=Anime
TTITLE0=第一話「よろい男、東京にあらわる」
TTITLE1=第二話「博士の異常な愛嬌」
TTITLE2=第三話「紺碧の変態」
TTITLE3=第四話「禁断の剥製」
EXTD=
EXTT0=
EXTT1=
EXTT2=
EXTT3=
PLAYORDER=
